<?xml version="1.0" encoding="UTF-8"?>
<svg width="40px" height="40px" viewBox="0 0 40 40" version="1.1" xmlns="http://www.w3.org/2000/svg" xmlns:xlink="http://www.w3.org/1999/xlink">
    <!-- Generator: Sketch 52.2 (67145) - http://www.bohemiancoding.com/sketch -->
    <title>ceecee-logo-black</title>
    <desc>Created with Sketch.</desc>
    <g id="Page-1" stroke="none" stroke-width="1" fill="none" fill-rule="evenodd">
        <g id="ceecee-logo-black" fill="#000000" fill-rule="nonzero">
            <path d="M20,0 C8.954,0 0,8.955 0,20 C0,31.046 8.954,40 20,40 C31.045,40 40,31.046 40,20 C40,8.955 31.045,0 20,0 Z M19.977,37.177 C10.477,37.177 2.777,29.477 2.777,19.977 C2.777,10.477 10.477,2.777 19.977,2.777 C29.477,2.777 37.177,10.477 37.177,19.977 C37.177,29.477 29.477,37.177 19.977,37.177 Z M28.163,28.163 C26.0034044,30.3044027 23.0842904,31.504403 20.043,31.501 C13.663,31.501 8.491,26.328 8.491,19.948 C8.491,13.568 13.662,8.395 20.043,8.395 C23.235,8.395 26.124,9.69 28.216,11.785 L30.229,9.771 C27.5314585,7.06313087 23.8652064,5.54314436 20.043,5.548 C12.09,5.548 5.643,11.995 5.643,19.948 C5.643,27.901 12.09,34.348 20.043,34.348 C23.8397719,34.3530599 27.4838065,32.8532307 30.177,30.177 L28.163,28.163 Z M24.264,24.264 C21.8900046,26.6192153 18.056222,26.6039917 15.7010059,24.2299971 C13.3457897,21.8560025 13.361012,18.0222199 15.7350058,15.6670029 C18.1089996,13.311786 21.9427822,13.327007 24.298,15.701 L26.173,13.827 C23.6885916,11.2859368 19.9149462,10.4980851 16.6213562,11.832833 C13.3277661,13.167581 11.1672649,16.3602827 11.1528141,19.9140241 C11.1383633,23.4677656 13.2728281,26.6779322 16.5554543,28.0394214 C19.8380804,29.4009106 23.6180083,28.6437744 26.123,26.123 L24.264,24.264 Z" id="Shape"></path>
        </g>
    </g>
</svg>