<?xml version="1.0" encoding="UTF-8"?>
<svg width="161px" height="33px" viewBox="0 0 161 33" version="1.1" xmlns="http://www.w3.org/2000/svg" xmlns:xlink="http://www.w3.org/1999/xlink">
    <!-- Generator: Sketch 52.2 (67145) - http://www.bohemiancoding.com/sketch -->
    <title>ceespot_logo_eps</title>
    <desc>Created with Sketch.</desc>
    <g id="Symbols" stroke="none" stroke-width="1" fill="none" fill-rule="evenodd">
        <g id="Header" transform="translate(0.000000, -4.000000)" fill="#FFFFFF">
            <g id="ceespot_logo_eps" transform="translate(0.000000, 4.000000)">
                <path d="M14.3835116,27.1720029 C7.54375801,27.1720029 1.99914235,21.6276085 1.99914235,14.7878549 C1.99914235,7.94832263 7.54375801,2.40392828 14.3835116,2.40392828 C21.2228226,2.40392828 26.7676596,7.94832263 26.7676596,14.7878549 C26.7676596,21.6276085 21.2228226,27.1720029 14.3835116,27.1720029 Z M14.4003316,0.404343305 C6.44714001,0.404343305 0,6.85170463 0,14.8046749 C0,22.7576451 6.44714001,29.2047852 14.4003316,29.2047852 C22.3528592,29.2047852 28.7999992,22.7576451 28.7999992,14.8046749 C28.7999992,6.85170463 22.3528592,0.404343305 14.4003316,0.404343305 Z" id="Fill-1"></path>
                <path d="M20.2775843,20.682149 C18.7750738,22.1671756 16.7102008,23.0849707 14.4308731,23.0849707 C9.83680726,23.0849707 6.1129537,19.3608958 6.1129537,14.7670513 C6.1129537,10.173428 9.83680726,6.44935317 14.4308731,6.44935317 C16.7294552,6.44935317 18.8100417,7.38175511 20.3156506,8.88913455 L21.765488,7.43929712 C19.8889544,5.560993 17.2955801,4.39908695 14.4308731,4.39908695 C8.70455748,4.39908695 4.06246617,9.04117826 4.06246617,14.7670513 C4.06246617,20.4933669 8.70455748,25.1352369 14.4308731,25.1352369 C17.2767683,25.1352369 19.8542079,23.9883803 21.7278644,22.1322077 L20.2775843,20.682149" id="Fill-3"></path>
                <path d="M17.470198,17.8747626 C16.6823151,18.6564488 15.5976481,19.139359 14.4003316,19.139359 C11.9924196,19.139359 10.0404175,17.1875782 10.0404175,14.7796662 C10.0404175,12.3719756 11.9924196,10.4201948 14.4003316,10.4201948 C15.6102631,10.4201948 16.7053319,10.9135069 17.4949853,11.7097998 L18.8452308,10.3595543 C17.7003661,9.18901697 16.1042391,8.46155313 14.3372567,8.46155313 C10.8548583,8.46155313 8.03153723,11.2846529 8.03153723,14.7670513 C8.03153723,18.249671 10.8548583,21.072992 14.3372567,21.072992 C16.085206,21.072992 17.6662835,20.3614629 18.8087138,19.2130571 L17.470198,17.8747626" id="Fill-4"></path>
                <path d="M48.8768505,0.0854277589 C40.9236589,0.0854277589 34.4767402,6.53278909 34.4767402,14.485538 C34.4767402,22.4387296 40.9236589,28.8856483 48.8768505,28.8856483 C56.8295994,28.8856483 63.2767394,22.4387296 63.2767394,14.485538 C63.2767394,6.53278909 56.8295994,0.0854277589 48.8768505,0.0854277589" id="Fill-5"></path>
                <path d="M85.4952601,6.10542898 L82.4909031,6.10542898 L82.4909031,9.79254417 C82.4909031,10.0964103 82.5059525,10.3730546 82.5364941,10.6233623 C82.5668143,10.8736701 82.6349794,11.0898953 82.7414322,11.2720379 C82.8472209,11.4541805 83.0105517,11.5947158 83.2307606,11.6932011 C83.4505268,11.7921291 83.7426632,11.8410399 84.1069484,11.8410399 C84.289091,11.8410399 84.5281117,11.822228 84.8240104,11.7841618 C85.1199092,11.7465382 85.3434378,11.6588973 85.4952601,11.5223456 L85.4952601,14.3675769 C85.1159255,14.5041285 84.7215414,14.5950892 84.3118865,14.6406801 C83.9022316,14.6862711 83.4998802,14.7088453 83.105496,14.7088453 C82.528748,14.7088453 81.997591,14.6479836 81.5122462,14.526924 C81.0266801,14.4056432 80.6019758,14.2122135 80.2376906,13.9464136 C79.8734054,13.6810564 79.5890151,13.3358043 79.384077,12.9108787 C79.1791389,12.4861744 79.0768911,11.9702881 79.0768911,11.3632198 L79.0768911,6.10542898 L76.8918438,6.10542898 L76.8918438,3.37417516 L79.0768911,3.37417516 L79.0768911,0.0964935308 L82.4909031,0.0964935308 L82.4909031,3.37417516 L85.4952601,3.37417516 L85.4952601,6.10542898" id="Fill-6"></path>
                <path d="M91.388005,0.44240956 L91.388005,5.22215907 L91.4333747,5.22215907 C91.5090645,5.00991756 91.6383127,4.79745474 91.8204554,4.58499192 C92.0023766,4.3725291 92.2221429,4.18308309 92.480418,4.01576862 C92.7382505,3.84911809 93.0416739,3.71256647 93.3909097,3.60611374 C93.7397028,3.50032496 94.1192588,3.44676663 94.5289137,3.44676663 C95.3938144,3.44676663 96.091622,3.5797772 96.622779,3.84513441 C97.1539361,4.11071294 97.5675746,4.47898183 97.8632521,4.94905582 C98.1591508,5.41957244 98.3601052,5.97330366 98.4665579,6.61047081 C98.572568,7.24785927 98.6259051,7.93858475 98.6259051,8.68176199 L98.6259051,14.7816581 L95.2116718,14.7816581 L95.2116718,9.36452011 C95.2116718,9.0460472 95.2001634,8.71606588 95.1775892,8.37457616 C95.1547937,8.03308644 95.0866286,7.71837589 94.9728724,7.43000187 C94.858895,7.14184917 94.6842771,6.90636955 94.4492401,6.72444826 C94.2137605,6.54230565 93.8762545,6.45134501 93.4365007,6.45134501 C92.996083,6.45134501 92.6397651,6.53101857 92.3666619,6.69014436 C92.0935586,6.84949148 91.8848581,7.06239693 91.7407818,7.32753283 C91.5962628,7.59311135 91.5017611,7.89299377 91.4563915,8.22651613 C91.4105792,8.56048113 91.388005,8.90949557 91.388005,9.27355947 L91.388005,14.7816581 L87.9737717,14.7816581 L87.9737717,0.44240956 L91.388005,0.44240956" id="Fill-7"></path>
                <path d="M129.56182,23.5101176 C129.56182,24.3446981 129.80084,25.0201529 130.27866,25.5358178 C130.756702,26.0517041 131.428173,26.3095366 132.293073,26.3095366 C133.157974,26.3095366 133.829224,26.0517041 134.307486,25.5358178 C134.785307,25.0201529 135.024327,24.3446981 135.024327,23.5101176 C135.024327,22.6757584 134.785307,22.000525 134.307486,21.4844174 C133.829224,20.9687525 133.157974,20.7104773 132.293073,20.7104773 C131.428173,20.7104773 130.756702,20.9687525 130.27866,21.4844174 C129.80084,22.000525 129.56182,22.6757584 129.56182,23.5101176 Z M126.42069,17.7402029 L129.56182,17.7402029 L129.56182,19.4359217 L129.607411,19.4359217 C129.743962,19.238951 129.922121,19.0375539 130.142109,18.8328372 C130.361875,18.6278991 130.62015,18.4422154 130.916049,18.2751223 C131.211947,18.1084717 131.534183,17.9716988 131.883197,17.8654674 C132.232433,17.7594573 132.6038,17.7061203 132.998627,17.7061203 C133.818158,17.7061203 134.561335,17.8466556 135.229044,18.1272836 C135.896753,18.4081328 136.469738,18.802517 136.947558,19.3106572 C137.4256,19.8192401 137.793205,20.422546 138.05148,21.1203535 C138.309312,21.8183824 138.43856,22.5847978 138.43856,23.419157 C138.43856,24.1928758 138.320821,24.9327333 138.085562,25.6382869 C137.850304,26.3438405 137.516782,26.9697205 137.08411,27.515927 C136.65166,28.0621335 136.124265,28.4985676 135.502369,28.8245652 C134.88003,29.1507842 134.174476,29.314115 133.385708,29.314115 C132.672187,29.314115 132.008462,29.2036786 131.39409,28.9839123 C130.779497,28.7641461 130.274677,28.3885738 129.880514,27.8574168 L129.834923,27.8574168 L129.834923,32.3120539 L126.42069,32.3120539 L126.42069,17.7402029 Z" id="Fill-8"></path>
                <path d="M143.052766,23.5101176 C143.052766,24.3446981 143.291787,25.0201529 143.769828,25.5358178 C144.247869,26.0517041 144.919119,26.3095366 145.784241,26.3095366 C146.648921,26.3095366 147.320392,26.0517041 147.798433,25.5358178 C148.276253,25.0201529 148.515274,24.3446981 148.515274,23.5101176 C148.515274,22.6757584 148.276253,22.000525 147.798433,21.4844174 C147.320392,20.9687525 146.648921,20.7104773 145.784241,20.7104773 C144.919119,20.7104773 144.247869,20.9687525 143.769828,21.4844174 C143.291787,22.000525 143.052766,22.6757584 143.052766,23.5101176 Z M139.638533,23.5101176 C139.638533,22.6301674 139.798101,21.8336532 140.116795,21.1203535 C140.435268,20.4070539 140.87126,19.7966659 141.425434,19.288083 C141.979165,18.7797215 142.631824,18.3888784 143.382747,18.1157751 C144.133892,17.8426719 144.934169,17.7061203 145.784241,17.7061203 C146.63365,17.7061203 147.434148,17.8426719 148.185292,18.1157751 C148.936437,18.3888784 149.588654,18.7797215 150.142827,19.288083 C150.696337,19.7966659 151.132771,20.4070539 151.451466,21.1203535 C151.769938,21.8336532 151.929507,22.6301674 151.929507,23.5101176 C151.929507,24.3902891 151.769938,25.1868034 151.451466,25.8998817 C151.132771,26.6134027 150.696337,27.224012 150.142827,27.7321522 C149.588654,28.2407351 148.936437,28.6311355 148.185292,28.9042388 C147.434148,29.177342 146.63365,29.314115 145.784241,29.314115 C144.934169,29.314115 144.133892,29.177342 143.382747,28.9042388 C142.631824,28.6311355 141.979165,28.2407351 141.425434,27.7321522 C140.87126,27.224012 140.435268,26.6134027 140.116795,25.8998817 C139.798101,25.1868034 139.638533,24.3902891 139.638533,23.5101176 Z" id="Fill-9"></path>
                <path d="M160.8722,20.4714567 L157.867843,20.4714567 L157.867843,24.3978138 C157.867843,24.7014586 157.882892,24.9781029 157.913434,25.2284107 C157.943533,25.4789398 158.01214,25.6951649 158.118372,25.8773075 C158.224382,26.0592288 158.387491,26.1997641 158.6077,26.2982495 C158.827466,26.3971775 159.119603,26.4460882 159.483888,26.4460882 C159.666031,26.4460882 159.905051,26.4272764 160.20095,26.3894315 C160.496849,26.3515865 160.720599,26.2641669 160.8722,26.127394 L160.8722,28.9726253 C160.492865,29.1091769 160.098481,29.2001375 159.688826,29.2457285 C159.279171,29.2913195 158.87682,29.314115 158.482657,29.314115 C157.905688,29.314115 157.374752,29.2532532 156.889186,29.1319724 C156.403398,29.0106915 155.978915,28.8172618 155.61463,28.551462 C155.250566,28.2863261 154.965955,27.9408527 154.761238,27.515927 C154.5563,27.0912227 154.453831,26.5753364 154.453831,25.9682682 L154.453831,20.4714567 L152.268783,20.4714567 L152.268783,17.7402029 L154.453831,17.7402029 L154.453831,14.4625212 L157.867843,14.4625212 L157.867843,17.7402029 L160.8722,17.7402029 L160.8722,20.4714567" id="Fill-10"></path>
                <path d="M125.038575,23.9994461 C124.757725,23.5822665 124.401186,23.2522851 123.968957,23.0092808 C123.536507,22.7667191 123.073294,22.5883388 122.580424,22.4745827 C122.087333,22.3606052 121.624563,22.2545951 121.192112,22.1558885 C120.759662,22.0571818 120.402901,21.9434256 120.122274,21.8143987 C119.841424,21.6855932 119.701332,21.4844174 119.701332,21.2113142 C119.701332,20.8775705 119.837883,20.6423122 120.110986,20.5057606 C120.38409,20.3689876 120.664718,20.3008225 120.953092,20.3008225 C121.772401,20.3008225 122.432364,20.611992 122.933201,21.2341097 L125.027066,19.1628185 C124.51118,18.616612 123.881316,18.2374986 123.138139,18.0248145 C122.394519,17.8123517 121.658645,17.7061203 120.930296,17.7061203 C120.353548,17.7061203 119.784546,17.7782691 119.22329,17.9223455 C118.661592,18.0666431 118.16496,18.290393 117.732509,18.5938165 C117.300059,18.8974613 116.950823,19.2843207 116.685466,19.754616 C116.419666,20.2249113 116.287098,20.7866099 116.287098,21.4388264 C116.287098,22.1370767 116.427412,22.6945702 116.708262,23.1117498 C116.98889,23.5293721 117.34565,23.851386 117.7781,24.0791196 C118.210551,24.3066319 118.6731,24.4774874 119.166412,24.5912435 C119.659503,24.7049997 120.122274,24.8112311 120.554724,24.9099378 C120.987174,25.0086445 121.343713,25.1299253 121.624563,25.2740017 C121.905191,25.4182993 122.045505,25.6345245 122.045505,25.9226772 C122.045505,26.226322 121.886379,26.4348011 121.567685,26.5485573 C121.24899,26.6623134 120.89223,26.7194128 120.497846,26.7194128 C119.98196,26.7194128 119.530697,26.6169437 119.143617,26.4120056 C118.79084,26.2252154 118.466391,25.9587516 118.170493,25.6139422 L116.338443,27.4517456 L116.013995,27.8118258 C116.560202,28.3733031 117.22791,28.7641461 118.0169,28.9839123 C118.805889,29.2036786 119.587354,29.314115 120.361294,29.314115 C120.953092,29.314115 121.552414,29.2572369 122.159261,29.1432595 C122.766108,29.0295033 123.312314,28.8325326 123.798102,28.551462 C124.283668,28.2710553 124.682035,27.8992454 124.993205,27.4362535 C125.303932,26.9737042 125.459738,26.3856691 125.459738,25.6723695 C125.459738,24.9745619 125.319203,24.416847 125.038575,23.9994461" id="Fill-11"></path>
                <path d="M93.2189476,19.9996122 C94.463183,19.9996122 95.361945,20.9674246 95.3391495,22.119814 L90.7760678,22.119814 C90.868135,21.036475 91.6978466,19.9996122 93.2189476,19.9996122 Z M95.5949901,25.5893762 C95.0516607,26.2086168 94.3529679,26.6368621 93.3800652,26.6368621 C92.0435413,26.6368621 91.0524908,25.7841337 90.7760678,24.4704053 L98.7960966,24.4704053 L98.7960966,23.3872876 C98.7960966,19.8152564 96.767962,17.5104774 93.5414042,17.5104774 C90.0846784,17.5104774 87.3191207,19.8152564 87.3191207,23.3872876 C87.3191207,26.95954 90.0846784,29.2640977 93.5414042,29.2640977 C95.0625052,29.2640977 96.5984343,28.6846939 97.7056755,27.6551345 L95.5949901,25.5893762 Z" id="Fill-12"></path>
                <path d="M106.091096,19.9996122 C107.335553,19.9996122 108.234315,20.9674246 108.211519,22.119814 L103.648216,22.119814 C103.740284,21.036475 104.569995,19.9996122 106.091096,19.9996122 Z M108.467139,25.5893762 C107.923809,26.2086168 107.225116,26.6368621 106.252214,26.6368621 C104.91569,26.6368621 103.924639,25.7841337 103.648216,24.4704053 L111.668245,24.4704053 L111.668245,23.3872876 C111.668245,19.8152564 109.640332,17.5104774 106.413774,17.5104774 C102.956827,17.5104774 100.191269,19.8152564 100.191269,23.3872876 C100.191269,26.95954 102.956827,29.2640977 106.413774,29.2640977 C107.934875,29.2640977 109.470583,28.6846939 110.577824,27.6551345 L108.467139,25.5893762 Z" id="Fill-13"></path>
                <path d="M106.091096,5.46051579 C107.335553,5.46051579 108.234315,6.42854952 108.211519,7.58071769 L103.648216,7.58071769 C103.740284,6.49759993 104.569995,5.46051579 106.091096,5.46051579 Z M108.467139,11.0505011 C107.923809,11.6697417 107.225116,12.0977658 106.252214,12.0977658 C104.91569,12.0977658 103.924639,11.2450374 103.648216,9.93130895 L111.668245,9.93130895 L111.668245,8.8481912 C111.668245,5.27616003 109.640332,2.97160238 106.413774,2.97160238 C102.956827,2.97160238 100.191269,5.27616003 100.191269,8.8481912 C100.191269,12.4204437 102.956827,14.7252226 106.413774,14.7252226 C107.934875,14.7252226 109.470583,14.1455975 110.577824,13.1162594 L108.467139,11.0505011 Z" id="Fill-14"></path>
                <path d="M83.024052,26.2218957 C81.2955784,26.2218957 80.2584943,25.0697275 80.2584943,23.3872876 C80.2584943,21.7050689 81.2955784,20.5526794 83.024052,20.5526794 C83.6652028,20.5526794 84.2499182,20.8499061 84.6133181,21.2606675 L86.911015,18.9131747 C85.8314383,17.8811808 84.2983863,17.5104774 83.024052,17.5104774 C79.5671048,17.5104774 76.8017684,19.8152564 76.8017684,23.3872876 C76.8017684,26.95954 79.5671048,29.2640977 83.024052,29.2640977 C84.3377804,29.2640977 86.0658113,28.7344898 87.1489291,27.628134 L84.7846163,25.3140598 C84.3928879,25.7748385 83.7844918,26.2218957 83.024052,26.2218957" id="Fill-15"></path>
            </g>
        </g>
    </g>
</svg>