<svg width="120" height="120" viewBox="0 0 120 120" xmlns="http://www.w3.org/2000/svg" xmlns:xlink="http://www.w3.org/1999/xlink"><defs><circle id="a" cx="60" cy="60" r="60"/></defs><g fill="none" fill-rule="evenodd"><mask id="b" fill="#fff"><use xlink:href="#a"/></mask><use fill="#EEE" xlink:href="#a"/><g mask="url(#b)"><path d="M203 93.027C203 32.81 154.646-16 95-16S-13 32.811-13 93.027c0 16.04 3.459 31.257 9.623 44.973h196.754c6.164-13.716 9.623-28.933 9.623-44.973" fill="#FFF2F2"/><path d="M59.599 89.5c-22.195-.4-40.427 17.809-40.427 40.398v8.936h80.853v-8.936c0-22.589-18.232-40.798-40.426-40.398" fill="#FFF"/><path d="M59.599 89.5c-22.195-.4-40.427 17.809-40.427 40.398v8.936h80.853v-8.936c0-22.589-18.232-40.798-40.426-40.398z" stroke="#1A1A1A" stroke-width="2" stroke-linecap="round" stroke-linejoin="round"/><path d="M59.599 107.325c8.265-.137 14.947-6.605 15.742-14.831A39.037 39.037 0 0 0 59.599 89.5a39.037 39.037 0 0 0-15.743 2.994c.796 8.226 7.477 14.694 15.743 14.83" fill="#FFBFBF"/><path d="M59.599 107.325c8.265-.137 14.947-6.605 15.742-14.831A39.037 39.037 0 0 0 59.599 89.5a39.037 39.037 0 0 0-15.743 2.994c.796 8.226 7.477 14.694 15.743 14.83z" stroke="#1A1A1A" stroke-width="2" stroke-linecap="round" stroke-linejoin="round"/><path d="M50.166 77.197v14.445a9.796 9.796 0 0 0 9.433 9.867 9.796 9.796 0 0 0 9.432-9.867V77.197H50.166z" fill="#FFF"/><path d="M50.166 77.197v14.445a9.796 9.796 0 0 0 9.433 9.867 9.796 9.796 0 0 0 9.432-9.867V77.197H50.166z" stroke="#1A1A1A" stroke-width="2" stroke-linecap="round" stroke-linejoin="round"/><path d="M86.55 51.173v-6.848c0-15.13-12.069-27.394-26.951-27.394-14.883 0-26.951 12.264-26.951 27.394v6.848c-2.976 0-5.39 2.452-5.39 5.479 0 3.024 2.414 5.479 5.39 5.479.113 0 .218-.028.331-.036 1.94 13.193 13.101 23.32 26.62 23.32 13.518 0 24.679-10.127 26.62-23.32.112.008.217.036.33.036 2.976 0 5.39-2.455 5.39-5.48 0-3.026-2.414-5.478-5.39-5.478" fill="#FFF"/><path d="M86.55 51.173v-6.848c0-15.13-12.069-27.394-26.951-27.394-14.883 0-26.951 12.264-26.951 27.394v6.848c-2.976 0-5.39 2.452-5.39 5.479 0 3.024 2.414 5.479 5.39 5.479.113 0 .218-.028.331-.036 1.94 13.193 13.101 23.32 26.62 23.32 13.518 0 24.679-10.127 26.62-23.32.112.008.217.036.33.036 2.976 0 5.39-2.455 5.39-5.48 0-3.026-2.414-5.478-5.39-5.478z" stroke="#1A1A1A" stroke-width="2" stroke-linecap="round" stroke-linejoin="round"/><path d="M47.47 61.464c0 1.89-1.509 3.425-3.368 3.425-1.86 0-3.37-1.534-3.37-3.425 0-1.89 1.51-3.424 3.37-3.424s3.369 1.534 3.369 3.424m24.256 0c0 1.89 1.509 3.425 3.368 3.425 1.86 0 3.37-1.534 3.37-3.425 0-1.89-1.51-3.424-3.37-3.424s-3.368 1.534-3.368 3.424" fill="#FFBFBF"/><path d="M51.49 68.42c4.91 4.394 11.306 4.394 16.219 0M52.86 52.561c-.835-1.613-2.3-2.747-4.053-2.747-1.751 0-3.22 1.134-4.056 2.747m29.694 0c-.835-1.613-2.301-2.747-4.056-2.747-1.752 0-3.218 1.134-4.053 2.747" stroke="#1A1A1A" stroke-width="2" stroke-linecap="round" stroke-linejoin="round"/><path d="M89.782 41.224c-.45-.162-.906-.2-1.353-.162-.052-.057-.092-.123-.146-.18a4.877 4.877 0 0 0 3.38-3.137c.892-2.564-.431-5.38-2.957-6.287a4.746 4.746 0 0 0-3.145-.01l-.259-.79a6.573 6.573 0 0 0 2.596-5.237c0-3.63-2.895-6.575-6.469-6.575a6.344 6.344 0 0 0-3.69 1.186l-.352-.361-.2-.102c.119-.498.2-1.008.2-1.545 0-3.63-2.897-6.572-6.468-6.572-1.995 0-3.757.937-4.943 2.378-.44-3.197-3.11-5.665-6.374-5.665h-.003c-3.266 0-5.937 2.468-6.376 5.665-1.189-1.44-2.949-2.378-4.94-2.378-3.574 0-6.472 2.943-6.472 6.572 0 .537.079 1.047.197 1.545l-.197.102-.355.361a6.323 6.323 0 0 0-3.687-1.186c-3.571 0-6.466 2.945-6.466 6.575a6.578 6.578 0 0 0 2.593 5.237l-.259.79a4.738 4.738 0 0 0-3.142.01c-2.528.907-3.852 3.723-2.96 6.287a4.873 4.873 0 0 0 3.377 3.137c-.048.057-.094.123-.142.18-.448-.038-.903 0-1.353.162-1.682.605-2.569 2.482-1.973 4.191.296.858.908 1.51 1.655 1.874 1.053 3.627 6.244 3.558 6.244 7.993 0-23.084 10.581-27.333 17.788-23.972 1.617.753 4.043 1.132 6.468 1.115 2.426.017 4.851-.362 6.468-1.115 7.207-3.361 17.79.888 17.79 23.972 0-4.435 5.189-4.366 6.243-7.993a3.27 3.27 0 0 0 1.654-1.874c.596-1.71-.288-3.586-1.972-4.191" fill="#FFF"/><path d="M89.782 41.224c-.45-.162-.906-.2-1.353-.162-.052-.057-.092-.123-.146-.18a4.877 4.877 0 0 0 3.38-3.137c.892-2.564-.431-5.38-2.957-6.287a4.746 4.746 0 0 0-3.145-.01l-.259-.79a6.573 6.573 0 0 0 2.596-5.237c0-3.63-2.895-6.575-6.469-6.575a6.344 6.344 0 0 0-3.69 1.186l-.352-.361-.2-.102c.119-.498.2-1.008.2-1.545 0-3.63-2.897-6.572-6.468-6.572-1.995 0-3.757.937-4.943 2.378-.44-3.197-3.11-5.665-6.374-5.665h-.003c-3.266 0-5.937 2.468-6.376 5.665-1.189-1.44-2.949-2.378-4.94-2.378-3.574 0-6.472 2.943-6.472 6.572 0 .537.079 1.047.197 1.545l-.197.102-.355.361a6.323 6.323 0 0 0-3.687-1.186c-3.571 0-6.466 2.945-6.466 6.575a6.578 6.578 0 0 0 2.593 5.237l-.259.79a4.738 4.738 0 0 0-3.142.01c-2.528.907-3.852 3.723-2.96 6.287a4.873 4.873 0 0 0 3.377 3.137c-.048.057-.094.123-.142.18-.448-.038-.903 0-1.353.162-1.682.605-2.569 2.482-1.973 4.191.296.858.908 1.51 1.655 1.874 1.053 3.627 6.244 3.558 6.244 7.993 0-23.084 10.581-27.333 17.788-23.972 1.617.753 4.043 1.132 6.468 1.115 2.426.017 4.851-.362 6.468-1.115 7.207-3.361 17.79.888 17.79 23.972 0-4.435 5.189-4.366 6.243-7.993a3.27 3.27 0 0 0 1.654-1.874c.596-1.71-.288-3.586-1.972-4.191z" stroke="#1A1A1A" stroke-width="2" stroke-linecap="round" stroke-linejoin="round"/><path d="M135.599 88.907c-22.195-.394-40.427 17.668-40.427 40.082v8.833h80.853v-8.833c0-22.414-18.232-40.476-40.426-40.082" fill="#FFBFBF"/><path d="M126.166 88.901l-3.232 14.147 12.665 34.774h-6.738l-10.436-7.308a2.736 2.736 0 0 1-.846-3.506l3.736-7.126-9.924-8.578a2.731 2.731 0 0 1-.795-2.954c2.517-7.322 4.31-17.054 15.57-19.449" fill="#FFBFBF"/><path d="M126.166 88.901l-3.232 14.147 12.665 34.774h-6.738l-10.436-7.308a2.736 2.736 0 0 1-.846-3.506l3.736-7.126-9.924-8.578a2.731 2.731 0 0 1-.795-2.954c2.517-7.322 4.31-17.054 15.57-19.449z" stroke="#1A1A1A" stroke-width="2" stroke-linecap="round" stroke-linejoin="round"/></g></g></svg>